<svg width="140" height="52" viewBox="0 0 140 52" fill="none" xmlns="http://www.w3.org/2000/svg">
<path d="M26.3494 0C11.8202 0 0 11.6635 0 26C0 40.3365 11.8202 52 26.3494 52C40.8786 52 52.6974 40.3379 52.6974 26C52.6974 11.6621 40.88 0 26.3494 0ZM27.5128 49.961V43.6962H28.6328C28.6437 43.6945 28.6544 43.6922 28.665 43.6893C29.7744 43.7129 30.8316 44.1583 31.6162 44.9326C31.8377 45.1509 32.138 45.2735 32.4511 45.2734C32.7642 45.2733 33.0644 45.1504 33.2857 44.9319C33.507 44.7133 33.6312 44.417 33.6311 44.1081C33.631 43.7991 33.5065 43.5029 33.285 43.2845C32.6641 42.6687 31.9255 42.1807 31.112 41.8487C30.2985 41.5167 29.4263 41.3474 28.546 41.3505H26.9402C26.908 41.3505 26.8814 41.3657 26.8506 41.3671H24.0646C22.9744 41.3654 21.9254 40.9559 21.129 40.2212C20.3327 39.4865 19.8484 38.4811 19.7736 37.4079C19.733 36.8357 19.8132 36.2614 20.0091 35.7214C20.205 35.1814 20.5124 34.6874 20.9118 34.2707C21.3343 33.8297 21.8437 33.4786 22.4088 33.2392C22.9739 32.9997 23.5826 32.8768 24.1976 32.8782H28.6272C28.9402 32.8782 29.2404 32.7555 29.4617 32.5371C29.6831 32.3187 29.8074 32.0225 29.8074 31.7136C29.8074 31.4048 29.6831 31.1085 29.4617 30.8902C29.2404 30.6718 28.9402 30.5491 28.6272 30.5491H24.0646C22.9742 30.5474 21.9249 30.1377 21.1286 29.4027C20.3322 28.6676 19.848 27.662 19.7736 26.5885C19.733 26.0163 19.8132 25.442 20.0091 24.902C20.205 24.362 20.5124 23.868 20.9118 23.4512C21.3345 23.0107 21.844 22.6601 22.4091 22.4211C22.9741 22.1821 23.5828 22.0598 24.1976 22.0615H35.3094C35.4837 22.0615 35.6558 22.0228 35.8128 21.9482C35.9699 21.8735 36.1079 21.765 36.2166 21.6305L36.82 20.8735C36.8587 20.8253 36.8857 20.769 36.899 20.7089C36.9122 20.6488 36.9114 20.5866 36.8966 20.5268C36.8817 20.4671 36.8532 20.4116 36.8132 20.3644C36.7733 20.3172 36.7229 20.2796 36.666 20.2546C35.623 19.7946 33.5328 18.6701 32.2462 18.6701C30.7062 18.6701 29.9502 19.7048 28.798 19.731H27.5086V19.1688C28.2271 18.0926 29.1981 17.2033 30.3392 16.5763C31.4803 15.9494 32.7578 15.6033 34.0634 15.5674H43.0416V34.8785H34.4582C35.0518 33.8021 35.3223 32.5812 35.238 31.3586C35.1228 29.6955 34.3728 28.1375 33.1392 26.9986C31.9055 25.8598 30.2801 25.225 28.5908 25.2222H24.08C23.767 25.2222 23.4668 25.3449 23.2455 25.5633C23.0241 25.7817 22.8998 26.0779 22.8998 26.3868C22.8998 26.6957 23.0241 26.9919 23.2455 27.2103C23.4668 27.4287 23.767 27.5514 24.08 27.5514H28.5978C29.6882 27.553 30.7375 27.9627 31.5338 28.6977C32.3302 29.4328 32.8144 30.4385 32.8888 31.5119C32.9294 32.0841 32.8492 32.6584 32.6533 33.1984C32.4574 33.7384 32.15 34.2324 31.7506 34.6492C31.3283 35.0899 30.819 35.4406 30.2542 35.6799C29.6894 35.9191 29.0809 36.0417 28.4662 36.0403H24.08C23.767 36.0403 23.4668 36.163 23.2455 36.3814C23.0241 36.5998 22.8998 36.896 22.8998 37.2048C22.8998 37.5137 23.0241 37.8099 23.2455 38.0283C23.4668 38.2467 23.767 38.3694 24.08 38.3694H28.4662C29.2232 38.3672 29.9747 38.2426 30.6908 38.0005C30.7766 37.9831 30.8602 37.9562 30.94 37.9204C31.926 37.4779 32.9919 37.2351 34.0746 37.2062H45.4146V13.2369H34.0466C31.6491 13.2976 29.3453 14.168 27.5198 15.7028V12.9302C28.5074 12.6453 29.3562 12.0155 29.9077 11.1583C30.4591 10.3011 30.6756 9.27517 30.5166 8.27205C30.3576 7.26892 29.834 6.35719 29.0437 5.70707C28.2533 5.05695 27.2502 4.71289 26.2215 4.73913C25.1929 4.76538 24.2091 5.16013 23.4539 5.84968C22.6986 6.53924 22.2235 7.47645 22.1173 8.48634C22.011 9.49623 22.2809 10.5098 22.8765 11.3377C23.4721 12.1656 24.3528 12.7513 25.354 12.9855V15.7055C23.519 14.1674 21.2048 13.297 18.7978 13.2397H7.4578V37.2076H17.4104C17.4104 37.325 17.4104 37.4424 17.4104 37.5599C17.5259 39.2228 18.276 40.7807 19.5096 41.9194C20.7431 43.0582 22.3684 43.6931 24.0576 43.6962H25.347V49.9651C12.4082 49.4554 2.0356 38.8998 2.0356 26C2.0356 12.7714 12.943 2.00861 26.3494 2.00861C39.7558 2.00861 50.6618 12.7714 50.6618 26C50.6618 38.8474 40.3802 49.3601 27.5128 49.961ZM17.808 34.8785H9.8196V15.5674H18.7684C20.0781 15.6007 21.3603 15.9457 22.5059 16.573C23.6515 17.2002 24.6267 18.0912 25.3484 19.1702V19.7324H24.192C23.2542 19.7315 22.3261 19.9197 21.4647 20.2856C20.6033 20.6514 19.8268 21.1871 19.1828 21.8598C18.5614 22.5087 18.0832 23.2778 17.7784 24.1183C17.4736 24.9588 17.3487 25.8526 17.4118 26.7432C17.4802 27.7369 17.777 28.7023 18.2796 29.5661C18.7822 30.4299 19.4774 31.1695 20.3126 31.7288C19.9017 32.003 19.5227 32.3213 19.1828 32.6779C18.5775 33.313 18.108 34.0619 17.8024 34.8799M26.3424 11.0404C25.9161 11.0407 25.4994 10.9162 25.1448 10.6827C24.7903 10.4492 24.5139 10.1172 24.3507 9.72864C24.1874 9.3401 24.1446 8.91251 24.2277 8.49998C24.3108 8.08744 24.5161 7.70849 24.8175 7.41107C25.1189 7.11366 25.5029 6.91115 25.921 6.82916C26.3391 6.74717 26.7724 6.78939 27.1662 6.95047C27.5599 7.11156 27.8964 7.38427 28.1331 7.73411C28.3697 8.08394 28.4959 8.49518 28.4956 8.91578C28.4949 9.47905 28.2678 10.019 27.8641 10.4173C27.4605 10.8156 26.9132 11.0397 26.3424 11.0404Z" fill="#008375"/>
<path d="M68.7036 14.896C67.4604 14.7658 66.2034 14.8947 65.0139 15.2745C63.8244 15.6542 62.7291 16.2764 61.7988 17.1005C60.8686 17.9246 60.1242 18.9324 59.6138 20.0586C59.1035 21.1848 58.8387 22.4041 58.8364 23.6377V36.8912H63.0476V33.1462L72.4598 30.078V36.8912H76.6696V23.7883C76.6696 19.2655 73.2634 15.3616 68.7036 14.896ZM72.4598 25.7444L63.0476 28.8485V23.751C63.0476 21.6443 64.4476 19.7449 66.5196 19.2199C67.218 19.0351 67.9501 19.0111 68.6594 19.1499C69.3687 19.2886 70.0361 19.5864 70.6102 20.0202C71.1843 20.4539 71.6497 21.0121 71.9704 21.6516C72.2911 22.2911 72.4585 22.9947 72.4598 23.7082V25.7444Z" fill="#004750"/>
<path d="M90.0047 14.896C88.7615 14.7658 87.5044 14.8947 86.3149 15.2745C85.1255 15.6542 84.0301 16.2764 83.0998 17.1005C82.1696 17.9246 81.4252 18.9324 80.9149 20.0586C80.4045 21.1848 80.1397 22.4041 80.1375 23.6377V36.8912H84.3487V33.1462L93.7609 30.078V36.8912H97.9721V23.7883C97.9721 19.2655 94.5645 15.3616 90.0047 14.896ZM93.7609 25.7444L84.3487 28.8485V23.751C84.3487 21.6443 85.7487 19.7449 87.8221 19.2199C88.5204 19.035 89.2524 19.0111 89.9616 19.1498C90.6708 19.2886 91.3382 19.5864 91.9122 20.0202C92.4862 20.454 92.9515 21.0122 93.272 21.6517C93.5925 22.2911 93.7598 22.9948 93.7609 23.7082V25.7444Z" fill="#004750"/>
<path d="M109.459 15.3823H101.192V36.8913H105.403V32.9804H109.313C113.898 32.9804 117.853 29.618 118.327 25.1187C118.458 23.8914 118.327 22.6504 117.941 21.4764C117.556 20.3023 116.925 19.2212 116.089 18.3033C115.253 17.3853 114.23 16.651 113.088 16.1478C111.946 15.6446 110.71 15.3838 109.459 15.3823ZM109.459 28.8251H105.399V19.5377H109.498C110.221 19.5387 110.934 19.7038 111.582 20.0201C112.23 20.3364 112.796 20.7954 113.236 21.3618C113.675 21.9282 113.977 22.5867 114.118 23.2865C114.258 23.9863 114.234 24.7087 114.047 25.3977C113.518 27.4395 111.591 28.8251 109.455 28.8251" fill="#004750"/>
<path d="M136.906 30.9939C136.246 31.6896 135.447 32.2433 134.56 32.6206C133.672 32.9978 132.716 33.1904 131.75 33.1863C130.583 33.1868 129.434 32.9032 128.404 32.3607C127.375 31.8181 126.497 31.0334 125.848 30.076C125.2 29.1186 124.8 28.0182 124.686 26.8721C124.571 25.7261 124.745 24.5698 125.192 23.5059C125.638 22.442 126.344 21.5032 127.246 20.7727C128.148 20.0422 129.219 19.5426 130.364 19.3182C131.509 19.0938 132.692 19.1515 133.809 19.4862C134.925 19.8208 135.941 20.4222 136.766 21.2368L139.776 18.2654C138.456 16.9632 136.831 16.0023 135.044 15.4678C133.258 14.9333 131.366 14.8418 129.535 15.2012C127.704 15.5607 125.992 16.3601 124.549 17.5287C123.106 18.6972 121.978 20.1989 121.263 21.9006C120.549 23.6022 120.271 25.4515 120.454 27.2845C120.637 29.1175 121.275 30.8776 122.312 32.4091C123.349 33.9406 124.753 35.1961 126.399 36.0644C128.045 36.9327 129.883 37.3871 131.75 37.3872C133.294 37.3843 134.822 37.072 136.24 36.469C137.658 35.8661 138.937 34.9852 140 33.8797L136.906 30.9939Z" fill="#004750"/>
<path d="M59.6008 40.5756V46.0668H58.5032V40.5756H59.6008Z" fill="#008375"/>
<path d="M64.8495 40.5756V46.0668H64.0095L61.6295 42.7085V46.0668H60.5319V40.5756H61.3719L63.7519 43.9255V40.5756H64.8495Z" fill="#008375"/>
<path d="M69.461 41.6103H67.9588V46.0668H66.8612V41.6103H65.366V40.5756H69.461V41.6103Z" fill="#008375"/>
<path d="M73.4132 45.0348V46.0695H69.9706V40.5756H73.374V41.6103H71.0682V42.779H73.1682V43.7998H71.0682V45.0348H73.4132Z" fill="#008375"/>
<path d="M76.02 44.1603H75.18V46.0667H74.0824V40.5755H76.3098C76.5525 40.5748 76.793 40.6213 77.0175 40.7124C77.242 40.8034 77.4461 40.9373 77.6182 41.1063C77.7902 41.2752 77.9268 41.476 78.0201 41.6971C78.1134 41.9182 78.1616 42.1553 78.162 42.3949C78.1549 42.7346 78.0502 43.0655 77.8601 43.3489C77.6701 43.6323 77.4024 43.8567 77.0882 43.9959L78.3202 46.0681H77.14L76.02 44.1603ZM75.18 43.2113H76.3098C76.5164 43.1945 76.709 43.1016 76.8495 42.9511C76.9899 42.8006 77.0678 42.6036 77.0678 42.399C77.0678 42.1944 76.9899 41.9974 76.8495 41.8469C76.709 41.6964 76.5164 41.6035 76.3098 41.5867H75.18V43.2113Z" fill="#008375"/>
<path d="M83.1782 40.5756V46.0668H82.3382L79.9582 42.7085V46.0668H78.8606V40.5756H79.7006L82.0806 43.9255V40.5756H83.1782Z" fill="#008375"/>
<path d="M87.36 45.079H85.134L84.7994 46.0668H83.615L85.5638 40.5756H86.9232L88.8832 46.0668H87.6904L87.36 45.079ZM87.01 44.0678L86.247 41.8244L85.484 44.0678H87.01Z" fill="#008375"/>
<path d="M92.5932 41.6103H91.0896V46.0668H89.992V41.6103H88.4982V40.5756H92.5932V41.6103Z" fill="#008375"/>
<path d="M94.199 40.5756V46.0668H93.1V40.5756H94.199Z" fill="#008375"/>
<path d="M94.8752 43.3204C94.876 42.7562 95.0464 42.205 95.3647 41.7363C95.6831 41.2676 96.1351 40.9026 96.6637 40.6875C97.1923 40.4723 97.7737 40.4167 98.3343 40.5275C98.8949 40.6384 99.4097 40.9109 99.8134 41.3104C100.217 41.7099 100.492 42.2186 100.602 42.7721C100.713 43.3256 100.655 43.8991 100.436 44.4201C100.216 44.941 99.8447 45.386 99.3688 45.6988C98.893 46.0116 98.3338 46.1781 97.762 46.1772C97.3813 46.1804 97.0038 46.1086 96.6515 45.966C96.2993 45.8235 95.9794 45.613 95.7106 45.347C95.4418 45.081 95.2295 44.7647 95.086 44.4168C94.9426 44.0688 94.8709 43.6961 94.8752 43.3204ZM99.5582 43.3204C99.5582 42.2623 98.7714 41.5163 97.762 41.5163C97.4014 41.5116 97.0476 41.6128 96.7453 41.8069C96.4431 42.001 96.2061 42.2794 96.0645 42.6066C95.9228 42.9338 95.8829 43.2952 95.9497 43.6449C96.0166 43.9945 96.1872 44.3167 96.4399 44.5705C96.6926 44.8244 97.016 44.9984 97.3692 45.0706C97.7223 45.1427 98.0892 45.1097 98.4232 44.9758C98.7573 44.8419 99.0436 44.613 99.2456 44.3183C99.4477 44.0236 99.5565 43.6763 99.5582 43.3204Z" fill="#008375"/>
<path d="M105.641 40.5756V46.0668H104.801L102.421 42.7085V46.0668H101.324V40.5756H102.164L104.544 43.9255V40.5756H105.641Z" fill="#008375"/>
<path d="M109.816 45.079H107.597L107.264 46.0668H106.079L108.027 40.5756H109.386L111.346 46.0668H110.153L109.816 45.079ZM109.48 44.0678L108.717 41.8244L107.947 44.0678H109.48Z" fill="#008375"/>
<path d="M115 45.0348V46.0695H111.78V40.5756H112.878V45.0348H115Z" fill="#008375"/>
</svg>
