<svg width="73" height="32" viewBox="0 0 73 32" fill="none" xmlns="http://www.w3.org/2000/svg">
<g clip-path="url(#clip0_28_2465)">
<path d="M50.4613 18.8522C50.5623 18.8589 50.6252 18.9626 50.5883 19.0556C47.9784 25.6423 43.8429 28.5106 37.286 28.3948C30.4068 28.2735 27.0211 23.4679 27.506 16.5362C28.0113 9.32438 32.9225 -0.719403 43.7842 0.29508C49.8494 0.862275 51.8311 3.89899 52.305 8.54971C52.3132 8.63324 52.2299 8.69791 52.1452 8.69252L46.9459 9.57497C46.868 9.56958 46.8079 9.50492 46.8079 9.42812C46.8134 7.14048 46.2425 5.12499 42.82 4.73833C37.3188 4.11724 34.0424 11.1849 33.645 16.8744C33.3814 20.64 34.4275 23.8168 38.253 23.9111C41.3832 23.9893 43.8566 22.1341 45.2537 19.6174C45.281 19.5676 45.3357 19.5379 45.393 19.542L50.4599 18.8522H50.4613Z" fill="#003398"/>
<path d="M49.5121 28.3032L55.5186 0.288396C55.5254 0.254715 55.5555 0.231812 55.5896 0.231812H72.9263C72.9782 0.231812 73.0123 0.283007 72.9946 0.330161L71.3051 5.1951C71.2942 5.22204 71.2669 5.24091 71.2369 5.24091L60.5049 5.12235C60.4721 5.12235 60.4421 5.1439 60.4339 5.17624L58.5847 12.477H58.642L68.2527 12.0944C68.3046 12.089 68.3456 12.1375 68.3306 12.1874L66.7723 16.7923C66.7641 16.8179 66.7409 16.8381 66.7135 16.8421L58.0712 17.2315C58.0425 17.2355 58.0179 17.2571 58.0111 17.2854L56.5115 23.3736C56.5006 23.4194 56.5347 23.4625 56.5825 23.4625H67.324C67.3705 23.4625 67.4046 23.5043 67.395 23.5488L65.722 28.3342C65.7152 28.3679 65.6851 28.3908 65.651 28.3908H49.5845C49.538 28.3908 49.5039 28.349 49.5135 28.3046L49.5121 28.3032Z" fill="#003398"/>
<path d="M0.0259157 31.7401L18.94 0.0822861C18.9741 0.0283959 19.0356 -0.002591 19.0998 0.00145076L26.1047 0.247998C26.1934 0.253387 26.2631 0.324792 26.2658 0.412364L27.1877 27.9327C27.1904 28.0338 27.1057 28.116 27.0033 28.1092L21.5568 28.4151C21.4707 28.4097 21.4011 28.341 21.3956 28.2561L20.9599 21.6222C20.9531 21.5279 20.8712 21.4565 20.7756 21.4632L12.4159 21.9428C12.364 21.9469 12.3162 21.9725 12.2861 22.0143L6.50087 31.3144C6.46536 31.3629 6.408 31.3898 6.34791 31.3858L0.161124 32.0015C0.0313786 31.9934 -0.0423712 31.8506 0.0245499 31.7414L0.0259157 31.7401ZM13.9687 18.4669L21.0432 18.0156C21.132 18.0102 21.203 17.9375 21.2058 17.8499L21.4366 9.377C21.4366 8.61176 21.4366 7.83439 21.4366 7.04221C21.4188 6.24598 21.4994 5.07252 21.5622 4.63736C21.5636 4.62792 21.5294 4.63197 21.5294 4.63197C21.5117 4.63062 21.4953 4.63197 21.4816 4.63197C21.173 5.29751 20.8466 5.99674 20.456 6.7C20.09 7.36151 19.6789 8.08498 19.2227 8.87178L13.8062 18.211C13.7379 18.3295 13.8294 18.475 13.9674 18.4669H13.9687Z" fill="#003398"/>
<path d="M14.4604 17.0159L13.6068 18.5787L21.2713 18.1476L21.3191 16.3921L14.4604 17.0159Z" fill="#003398"/>
</g>
<defs>
<clipPath id="clip0_28_2465">
<rect width="73" height="32" fill="white"/>
</clipPath>
</defs>
</svg>
