<svg width="73" height="32" viewBox="0 0 73 32" fill="none" xmlns="http://www.w3.org/2000/svg">
<g clip-path="url(#clip0_2_2047)">
<path d="M50.4612 18.8524C50.5622 18.8591 50.625 18.9629 50.5882 19.0558C47.9782 25.6426 43.8428 28.5109 37.2859 28.395C30.4067 28.2738 27.021 23.4681 27.5058 16.5365C28.0112 9.32463 32.9224 -0.719159 43.7841 0.295325C49.8493 0.862519 51.831 3.89923 52.3049 8.54996C52.3131 8.63349 52.2298 8.69815 52.1451 8.69276L46.9457 9.57522C46.8679 9.56983 46.8078 9.50516 46.8078 9.42837C46.8133 7.14073 46.2424 5.12523 42.8199 4.73857C37.3187 4.11749 34.0423 11.1852 33.6448 16.8746C33.3812 20.6402 34.4274 23.817 38.2528 23.9114C41.3831 23.9895 43.8564 22.1343 45.2536 19.6177C45.2809 19.5678 45.3355 19.5382 45.3929 19.5422L50.4598 18.8524H50.4612Z" fill="white"/>
<path d="M49.512 28.3035L55.5185 0.28864C55.5253 0.254959 55.5553 0.232056 55.5895 0.232056H72.9262C72.978 0.232056 73.0122 0.283251 72.9944 0.330405L71.305 5.19534C71.2941 5.22229 71.2668 5.24115 71.2367 5.24115L60.5048 5.12259C60.472 5.12259 60.442 5.14415 60.4338 5.17648L58.5846 12.4773H58.6419L68.2526 12.0946C68.3045 12.0892 68.3455 12.1377 68.3305 12.1876L66.7721 16.7925C66.764 16.8181 66.7407 16.8383 66.7134 16.8424L58.071 17.2317C58.0424 17.2358 58.0178 17.2573 58.0109 17.2856L56.5114 23.3739C56.5004 23.4197 56.5346 23.4628 56.5824 23.4628H67.3239C67.3703 23.4628 67.4045 23.5045 67.3949 23.549L65.7219 28.3344C65.7151 28.3681 65.685 28.391 65.6509 28.391H49.5843C49.5379 28.391 49.5038 28.3493 49.5133 28.3048L49.512 28.3035Z" fill="white"/>
<path d="M0.0257936 31.7403L18.9399 0.0825302C18.974 0.02864 19.0355 -0.00234686 19.0997 0.00169491L26.1045 0.248243C26.1933 0.253632 26.263 0.325036 26.2657 0.412608L27.1876 27.933C27.1903 28.034 27.1056 28.1162 27.0032 28.1095L21.5566 28.4153C21.4706 28.4099 21.4009 28.3412 21.3955 28.2563L20.9598 21.6224C20.953 21.5281 20.871 21.4567 20.7754 21.4635L12.4158 21.9431C12.3639 21.9471 12.3161 21.9727 12.286 22.0145L6.50075 31.3146C6.46524 31.3631 6.40788 31.39 6.34779 31.386L0.161002 32.0017C0.0312565 31.9936 -0.0424933 31.8508 0.0244278 31.7417L0.0257936 31.7403ZM13.9686 18.4672L21.0431 18.0158C21.1319 18.0105 21.2029 17.9377 21.2056 17.8501L21.4365 9.37724C21.4365 8.612 21.4365 7.83464 21.4365 7.04245C21.4187 6.24622 21.4993 5.07276 21.5621 4.6376C21.5635 4.62817 21.5293 4.63221 21.5293 4.63221C21.5116 4.63086 21.4952 4.63221 21.4815 4.63221C21.1729 5.29776 20.8465 5.99698 20.4559 6.70025C20.0898 7.36175 19.6787 8.08523 19.2226 8.87202L13.8061 18.2112C13.7378 18.3298 13.8293 18.4753 13.9672 18.4672H13.9686Z" fill="white"/>
<path d="M14.4603 17.0161L13.6067 18.5789L21.2712 18.1478L21.319 16.3923L14.4603 17.0161Z" fill="white"/>
</g>
<defs>
<clipPath id="clip0_2_2047">
<rect width="73" height="32" fill="white" transform="translate(0 0.000244141)"/>
</clipPath>
</defs>
</svg>
