<svg width="21" height="20" viewBox="0 0 21 20" fill="none" xmlns="http://www.w3.org/2000/svg">
<path d="M12.2081 4.99996C13.022 5.15876 13.77 5.55684 14.3564 6.14324C14.9428 6.72964 15.3409 7.47768 15.4997 8.29163M12.2081 1.66663C13.8991 1.85449 15.476 2.61177 16.6799 3.81413C17.8838 5.01649 18.6431 6.59247 18.8331 8.28329M9.02221 11.5525C8.02089 10.5512 7.23023 9.419 6.65024 8.21098C6.60035 8.10708 6.5754 8.05512 6.55624 7.98938C6.48813 7.75575 6.53705 7.46887 6.67873 7.27101C6.7186 7.21533 6.76623 7.1677 6.86149 7.07244C7.15283 6.7811 7.29849 6.63544 7.39373 6.48895C7.75289 5.93654 7.75289 5.22439 7.39373 4.67199C7.29849 4.5255 7.15283 4.37984 6.86149 4.0885L6.6991 3.92611C6.25623 3.48324 6.03479 3.2618 5.79697 3.14151C5.32401 2.90229 4.76545 2.90229 4.29249 3.14152C4.05467 3.2618 3.83323 3.48324 3.39036 3.92611L3.259 4.05747C2.81765 4.49882 2.59697 4.7195 2.42843 5.01952C2.24142 5.35244 2.10695 5.86952 2.10809 6.25137C2.10911 6.59549 2.17586 6.83068 2.30937 7.30105C3.02684 9.82888 4.38057 12.2142 6.37056 14.2042C8.36054 16.1942 10.7458 17.5479 13.2737 18.2654C13.744 18.3989 13.9792 18.4656 14.3234 18.4666C14.7052 18.4678 15.2223 18.3333 15.5552 18.1463C15.8552 17.9777 16.0759 17.7571 16.5173 17.3157L16.6486 17.1844C17.0915 16.7415 17.3129 16.5201 17.4332 16.2822C17.6724 15.8093 17.6724 15.2507 17.4332 14.7777C17.3129 14.5399 17.0915 14.3185 16.6486 13.8756L16.4862 13.7132C16.1949 13.4219 16.0492 13.2762 15.9027 13.181C15.3503 12.8218 14.6382 12.8218 14.0858 13.181C13.9393 13.2762 13.7936 13.4219 13.5023 13.7132C13.407 13.8085 13.3594 13.8561 13.3037 13.896C13.1059 14.0377 12.819 14.0866 12.5853 14.0185C12.5196 13.9993 12.4676 13.9744 12.3637 13.9245C11.1557 13.3445 10.0235 12.5538 9.02221 11.5525Z" stroke="white" stroke-width="2" stroke-linecap="round" stroke-linejoin="round"/>
</svg>
